# xmcd
#
# Track frame offsets:
#        187
#        17769
#        34972
#        50097
#        68589
#        85259
#        99547
#        112157
#        134007
#        154259
#        180592
#
# Disc length: 2535 seconds
#
# Revision: 0
# Processed by: cddbd v1.5.1PL0 Copyright (c) Steve Scherf et al.
# Submitted via: ExactAudioCopy v0.95a5
#
DISCID=9909e50b
DTITLE=RingoStarr - TimeTakesTime
DYEAR=1992
DGENRE=Rock
TTITLE0=weight of the world
TTITLE1=don't know a thing about love
TTITLE2=don't go where the road don't go
TTITLE3=golden blunders
TTITLE4=all in the name of love
TTITLE5=after all these years
TTITLE6=i don't believe you
TTITLE7=runaways
TTITLE8=in a heartbeat
TTITLE9=what goes around
TTITLE10=don't be cluel
EXTD=
EXTT0=weight of the world
EXTT1=
EXTT2=
EXTT3=
EXTT4=
EXTT5=
EXTT6=
EXTT7=
EXTT8=
EXTT9=
EXTT10=
PLAYORDER=
